# AST/ASF file generated using VICON BodyLanguage
# -----------------------------------------------
:version 1.10
:name VICON
:units
  mass 1.0
  length 0.45
  angle deg
:documentation
   .ast/.asf automatically generated from VICON data using
   VICON BodyBuilder and BodyLanguage model FoxedUp or BRILLIANT.MOD
:root
   order TX TY TZ RX RY RZ
   axis XYZ
   position 0 0 0  
   orientation 0 0 0 
:bonedata
  begin
     id 1 
     name lhipjoint
     direction 0.646657 -0.683706 0.338203 
     length 2.4948 
     axis 0 0 0  XYZ
  end
  begin
     id 2 
     name lfemur
     direction 0.34202 -0.939693 0  
     length 6.79491  
     axis 0 0 20  XYZ
    dof rx ry rz
    limits (-160.0 20.0)
           (-70.0 70.0)
           (-60.0 70.0)
  end
  begin
     id 3 
     name ltibia
     direction 0.34202 -0.939693 0   
     length 7.56807   
     axis 0 0 20   XYZ
    dof rx
    limits (-10.0 170.0)
  end
  begin
     id 4 
     name lfoot
     direction 0.0679796 -0.186772 0.980048   
     length 2.53018   
     axis -90 7.62852e-016 20   XYZ
    dof rx rz
    limits (-45.0 90.0)
           (-70.0 20.0)
  end
  begin
     id 5 
     name ltoes
     direction 1.53625e-011 -4.21881e-011 1   
     length 1.26912   
     axis -90 7.62852e-016 20   XYZ
    dof rx
    limits (-90.0 20.0)
  end
  begin
     id 6 
     name rhipjoint
     direction -0.618868 -0.704065 0.348274   
     length 2.42265  
     axis 0 0 0  XYZ 
  end
  begin
     id 7 
     name rfemur
     direction -0.34202 -0.939693 0   
     length 6.73814   
     axis 0 0 -20   XYZ
    dof rx ry rz
    limits (-160.0 20.0)
           (-70.0 70.0)
           (-70.0 60.0)
  end
  begin
     id 8 
     name rtibia
     direction -0.34202 -0.939693 0   
     length 7.66799   
     axis 0 0 -20   XYZ
    dof rx
    limits (-10.0 170.0)
 end
 begin
     id 9 
     name rfoot
     direction -0.0727352 -0.199838 0.977125   
     length 2.57224  
     axis -90 -7.62852e-016 -20   XYZ
    dof rx rz
    limits (-45.0 90.0)
           (-20.0 70.0)
  end
  begin
     id 10 
     name rtoes
     direction -1.53501e-011 -4.21858e-011 1   
     length 1.28858   
     axis -90 -7.62852e-016 -20   XYZ
    dof rx
    limits (-90.0 20.0)
  end
  begin
     id 11 
     name lowerback
     direction -0.0172471 0.995767 -0.0902851   
     length 2.20206   
     axis 0 0 0   XYZ
    dof rx ry rz
    limits (-20.0 45.0)
           (-30.0 30.0)
           (-30.0 30.0)
  end
  begin
     id 12 
     name upperback
     direction -0.000110737 0.999714 0.0239043   
     length 2.19523   
     axis 0 0 0   XYZ
    dof rx ry rz
    limits (-20.0 45.0)
           (-30.0 30.0)
           (-30.0 30.0)
  end
  begin
     id 13 
     name thorax
     direction 0.00704869 0.997783 0.0661741   
     length 2.21977   
     axis 0 0 0   XYZ
    dof rx ry rz
    limits (-20.0 45.0)
           (-30.0 30.0)
           (-30.0 30.0)
  end
  begin
     id 14 
     name lowerneck
     direction -0.00407501 0.995527 0.0943846   
     length 1.83142   
     axis 0 0 0   XYZ
    dof rx ry rz
    limits (-20.0 45.0)
           (-30.0 30.0)
           (-30.0 30.0)
  end
  begin
     id 15 
     name upperneck
     direction 0.0640586 0.986486 -0.150807   
     length 1.84616   
     axis 0 0 0   XYZ
    dof rx ry rz
    limits (-20.0 45.0)
           (-30.0 30.0)
           (-30.0 30.0)
  end
  begin
     id 16
     name head
     direction 0.0188017 0.99791 -0.0618239  
     length 1.85932  
     axis 0 0 0   XYZ
    dof rx ry rz
    limits (-20.0 45.0)
           (-30.0 30.0)
           (-30.0 30.0)
  end
  begin
     id 17 
     name lclavicle
     direction 0.976074 0.206905 0.066852  
     length 3.81043  
     axis 0 0 0   XYZ
    dof ry rz
    limits (-20.0 10.0)
           (0.0 20.0)
  end
  begin
     id 18 
     name lhumerus
     direction 1 -4.48971e-011 1.86916e-027   
     length 5.37587   
     axis 180 -30 -90   XYZ
    dof rx ry rz
    limits (-60.0 90.0)
           (-90.0 90.0)
           (-90.0 90.0)
  end
  begin
     id 19
     name lradius
     direction 1 -4.48968e-011 1.69187e-027   
     length 3.35977   
     axis 180 -30 -90   XYZ
    dof rx
    limits (-10.0 170.0)
  end
  begin
     id 20
     name lwrist
     direction 1 -4.48968e-011 5.8978e-027   
     length 1.67988   
     axis -3.27506e-015 90 90   XYZ
    dof ry
    limits (-180.0 0.0)
 end
  begin
     id 21 
     name lhand
     direction 1 -4.49028e-011 1.18071e-026   
     length 0.561859   
     axis -7.52654e-015 90 90   XYZ
    dof rx rz
    limits (-90.0 90.0)
           (-45.0 45.0)
  end
  begin
     id 22 
     name lfingers
     direction 1 -4.48927e-011 2.35758e-026   
     length 0.452985   
     axis -1.50534e-014 90 90   XYZ
    dof rx
    limits (0.0 90.0)
  end
  begin
     id 23
     name lthumb
     direction 0.707107 -6.34898e-011 0.707107   
     length 0.650399   
     axis -90 45 5.69224e-014   XYZ
    dof rx rz
    limits (-45.0 45.0)
           (-45.0 45.0)
  end
  begin
     id 24 
     name rclavicle
     direction -0.988403 0.151789 0.00439714   
     length 3.6942  
     axis 0 0 0   XYZ 
    dof ry rz
    limits (-10.0 20.0)
           (-20.0 0.0)
  end
  begin
     id 25 
     name rhumerus
     direction -1 -4.48978e-011 1.62495e-027  
     length 5.22819   
     axis 180 30 90   XYZ
    dof rx ry rz
    limits (-90.0 60.0)
           (-90.0 90.0)
           (-90.0 90.0)
  end
  begin
     id 26 
     name rradius
     direction -1 -4.48961e-011 3.47796e-027   
     length 3.40764   
     axis 180 30 90   XYZ
    dof rx
    limits (-10.0 170.0)
  end
  begin
     id 27 
     name rwrist
     direction -1 -4.48949e-011 5.89602e-027   
     length 1.70382   
     axis -3.27506e-015 -90 -90   XYZ
    dof ry
    limits (-180.0 0.0)
  end
  begin
     id 28
     name rhand
     direction -1 -4.48977e-011 1.17973e-026   
     length 0.583255   
     axis -7.52654e-015 -90 -90   XYZ
    dof rx rz
    limits (-90.0 90.0)
           (-45.0 45.0)
  end
  begin
     id 29
     name rfingers
     direction -1 -4.49099e-011 2.36408e-026   
     length 0.470235   
     axis -1.50534e-014 -90 -90   XYZ
    dof rx
    limits (0.0 90.0)
  end
  begin
     id 30
     name rthumb
     direction -0.707107 -6.35011e-011 0.707107   
     length 0.675167   
     axis -90 -45 -5.69224e-014   XYZ
    dof rx rz
    limits (-45.0 45.0)
           (-45.0 45.0)
  end
:hierarchy
  begin
    root lhipjoint rhipjoint lowerback
    lhipjoint lfemur
    lfemur ltibia
    ltibia lfoot
    lfoot ltoes
    rhipjoint rfemur
    rfemur rtibia
    rtibia rfoot
    rfoot rtoes
    lowerback upperback
    upperback thorax
    thorax lowerneck lclavicle rclavicle
    lowerneck upperneck
    upperneck head
    lclavicle lhumerus
    lhumerus lradius
    lradius lwrist
    lwrist lhand lthumb
    lhand lfingers
    rclavicle rhumerus
    rhumerus rradius
    rradius rwrist
    rwrist rhand rthumb
    rhand rfingers
  end

#!OML:ASF G:\JayActor3\Patient Classification 1\Patient 1\Session 2\male.ASF
:FULLY-SPECIFIED
:DEGREES
700
root -12.0124 16.8684 -6.12205 216.621 -83.7664 -218.999
lowerback 0.213137 0.420573 -3.98771
upperback -1.64844 0.400885 -2.99057
thorax -1.82179 0.207351 -0.842972
lowerneck -8.41456 2.77907 1.41152
upperneck 7.25271 3.41861 1.37861
head 3.86967 1.79167 0.412119
rclavicle -2.12203e-014 3.02153e-014
rhumerus -31.5762 -13.9552 -82.134
rradius 16.9953
rwrist 14.8055
rhand -24.7996 3.51679
rfingers 7.12502
rthumb 1.70509 -26.4561
lclavicle -2.12203e-014 3.02153e-014
lhumerus -30.114 17.0694 78.479
lradius 29.2392
lwrist 12.7118
lhand -26.5968 21.6468
lfingers 7.12502
lthumb -0.0306999 51.6266
rfemur -13.778 -1.2871 13.4623
rtibia 84.6265
rfoot -7.67909 -4.17551
rtoes 0.17482
lfemur -4.99501 23.8434 -28.2448
ltibia 16.6981
lfoot -1.15667 -17.178
ltoes 15.2664
701
root -12.1467 16.8891 -6.11823 220.633 -84.1644 -223.012
lowerback 0.402449 0.157971 -4.23158
upperback -1.70814 0.0376806 -2.83773
thorax -1.9852 0.0349665 -0.543977
lowerneck -8.52964 2.78988 1.37212
upperneck 7.01614 3.4401 1.37581
head 3.80785 1.80051 0.418249
rclavicle 1.09332e-015 -2.8625e-014
rhumerus -32.8585 -18.7495 -78.4562
rradius 15.0395
rwrist 17.6968
rhand -25.5604 3.51391
rfingers 7.12502
rthumb 0.970286 -26.4636
lclavicle 1.09332e-015 -2.8625e-014
lhumerus -28.8886 15.7933 79.8562
lradius 30.8399
lwrist 13.3563
lhand -26.4226 21.1728
lfingers 7.12502
lthumb 0.137574 51.1525
rfemur -15.3085 -1.39875 13.407
rtibia 85.8324
rfoot -8.49351 -4.37585
rtoes -0.345287
lfemur -4.1365 23.0636 -28.2242
ltibia 16.1571
lfoot -1.02283 -16.7702
ltoes 14.9012
702
root -12.2789 16.9098 -6.11686 225.602 -84.5339 -227.995
lowerback 0.671894 -0.101574 -4.53862
upperback -1.79921 -0.330686 -2.68148
thorax -2.22101 -0.136828 -0.203936
lowerneck -8.61629 2.79738 1.34541
upperneck 6.794 3.45452 1.3849
head 3.74568 1.80661 0.425301
rclavicle 3.926e-015 1.55052e-014
rhumerus -34.6538 -23.5297 -74.2353
rradius 13.3428
rwrist 20.6766
rhand -26.2502 3.50147
rfingers 7.12502
rthumb 0.304093 -26.4781
lclavicle 3.926e-015 1.55052e-014
lhumerus -27.7761 14.3849 81.137
lradius 32.5451
lwrist 14.0219
lhand -26.1089 20.7506
lfingers 7.12502
lthumb 0.440567 50.7299
rfemur -16.7916 -1.50165 13.3536
rtibia 86.8255
rfoot -9.26591 -4.62124
rtoes -0.711818
lfemur -3.26742 22.1961 -28.2381
ltibia 15.5952
lfoot -0.878869 -16.2567
ltoes 14.4871
703
root -12.4097 16.93 -6.11713 231.318 -84.8699 -233.728
lowerback 0.992851 -0.353011 -4.86032
upperback -1.91089 -0.694767 -2.52036
thorax -2.50163 -0.303802 0.152663
lowerneck -8.69392 2.80076 1.33032
upperneck 6.58682 3.46013 1.41147
head 3.68706 1.80937 0.435572
rclavicle 4.67144e-015 -2.10712e-014
rhumerus -37.0173 -28.192 -69.4109
rradius 11.9018
rwrist 23.8399
rhand -26.7442 3.41769
rfingers 7.12502
rthumb -0.172993 -26.562
lclavicle 4.67144e-015 -2.10712e-014
lhumerus -26.7423 12.8956 82.3018
lradius 34.2932
lwrist 14.6011
lhand -25.6493 20.3226
lfingers 7.12502
lthumb 0.884414 50.3005
rfemur -18.2315 -1.57488 13.3338
rtibia 87.5989
rfoot -9.98786 -4.90881
rtoes -1.02189
lfemur -2.4239 21.2967 -28.2586
ltibia 15.062
lfoot -0.75183 -15.6926
ltoes 14.013
704
root -12.5395 16.9498 -6.11863 237.452 -85.1825 -239.879
lowerback 1.34288 -0.59169 -5.14691
upperback -2.02984 -1.04474 -2.34984
thorax -2.80158 -0.462065 0.502954
lowerneck -8.75847 2.80238 1.3304
upperneck 6.38261 3.46013 1.45371
head 3.62706 1.81026 0.44778
rclavicle -4.96962e-015 1.59028e-015
rhumerus -39.9947 -32.6068 -63.9508
rradius 10.7166
rwrist 27.2288
rhand -26.9812 3.28239
rfingers 7.12502
rthumb -0.401965 -26.697
lclavicle -4.96962e-015 1.59028e-015
lhumerus -25.7587 11.3366 83.3483
lradius 36.049
lwrist 15.0726
lhand -25.0796 19.8514
lfingers 7.12502
lthumb 1.43468 49.8263
rfemur -19.6248 -1.59156 13.3901
rtibia 88.1454
rfoot -10.6607 -5.22612
rtoes -1.24434
lfemur -1.63144 20.3955 -28.2432
ltibia 14.608
lfoot -0.670575 -15.1059
ltoes 13.4521
705
root -12.6678 16.9685 -6.12091 243.964 -85.4643 -246.403
lowerback 1.69763 -0.815214 -5.39018
upperback -2.1417 -1.37436 -2.17409
thorax -3.09366 -0.609582 0.837645
lowerneck -8.82258 2.80074 1.34162
upperneck 6.17079 3.45312 1.51064
head 3.56441 1.80837 0.462298
rclavicle 1.87852e-014 -1.55052e-014
rhumerus -41.0109 -32.5248 -62.413
rradius 9.73819
rwrist 25.508
rhand -27.4298 2.22171
rfingers 7.12502
rthumb -0.8352 -27.7564
lclavicle 1.87852e-014 -1.55052e-014
lhumerus -24.7791 9.72772 84.2786
lradius 37.7718
lwrist 15.428
lhand -24.453 19.3288
lfingers 7.12502
lthumb 2.03986 49.2988
rfemur -20.9825 -1.54036 13.5172
rtibia 88.4688
rfoot -11.281 -5.55063
rtoes -1.32816
lfemur -0.921873 19.5008 -28.195
ltibia 14.2794
lfoot -0.647153 -14.5059
ltoes 12.8786
706
root -12.7946 16.9859 -6.12392 250.801 -85.7129 -253.254
lowerback 2.04252 -1.0213 -5.58827
upperback -2.22978 -1.67783 -1.9939
thorax -3.35369 -0.744616 1.15391
lowerneck -8.89087 2.79587 1.35705
upperneck 5.94103 3.44027 1.58013
head 3.49632 1.80388 0.479635
rclavicle 2.83268e-015 1.47101e-014
rhumerus -42.0937 -32.4012 -60.7995
rradius 8.93602
rwrist 24.1355
rhand -27.5077 1.35234
rfingers 7.12502
rthumb -0.910461 -28.6255
lclavicle 2.83268e-015 1.47101e-014
lhumerus -23.7615 8.07656 85.1008
lradius 39.4351
lwrist 15.6817
lhand -23.8159 18.7753
lfingers 7.12502
lthumb 2.65514 48.7385
rfemur -22.2927 -1.41844 13.7085
rtibia 88.5704
rfoot -11.8563 -5.86168
rtoes -1.33961
lfemur -0.302655 18.6439 -28.1063
ltibia 14.1042
lfoot -0.695 -13.9343
ltoes 12.2811
707
root -12.9202 17.0014 -6.12757 257.696 -85.9149 -260.176
lowerback 2.37672 -1.20359 -5.74896
upperback -2.28542 -1.94605 -1.81381
thorax -3.57368 -0.863356 1.45015
lowerneck -8.96235 2.78846 1.37771
upperneck 5.69171 3.42304 1.65565
head 3.4222 1.79718 0.497505
rclavicle -1.26725e-015 -1.43125e-014
rhumerus -43.2407 -32.2495 -59.1289
rradius 8.32239
rwrist 23.1617
rhand -27.2766 0.712021
rfingers 7.12502
rthumb -0.687216 -29.2666
lclavicle -1.26725e-015 -1.43125e-014
lhumerus -22.6867 6.38703 85.8127
lradius 41.0267
lwrist 15.8452
lhand -23.2188 18.2306
lfingers 7.12502
lthumb 3.23183 48.1859
rfemur -23.5454 -1.20794 13.9474
rtibia 88.4575
rfoot -12.4008 -6.14493
rtoes -1.29295
lfemur 0.240525 17.8652 -27.9781
ltibia 14.0801
lfoot -0.801694 -13.4165
ltoes 11.6755
708
root -13.0443 17.0145 -6.13182 264.725 -86.0523 -267.238
lowerback 2.69367 -1.36442 -5.89451
upperback -2.30795 -2.18285 -1.64391
thorax -3.74962 -0.967971 1.72755
lowerneck -9.02328 2.77507 1.39958
upperneck 5.41093 3.3982 1.73275
head 3.33532 1.7862 0.514521
rclavicle 1.32192e-014 4.23411e-014
rhumerus -44.4552 -32.0788 -57.4167
rradius 7.90991
rwrist 22.5935
rhand -26.8078 0.315727
rfingers 7.12502
rthumb -0.23442 -29.6639
lclavicle 1.32192e-014 4.23411e-014
lhumerus -21.5543 4.65419 86.4102
lradius 42.5594
lwrist 15.9339
lhand -22.67 17.7573
lfingers 7.12502
lthumb 3.76181 47.7039
rfemur -24.7465 -0.929969 14.192
rtibia 88.1413
rfoot -12.9322 -6.37961
rtoes -1.11245
lfemur 0.70983 17.1794 -27.8386
ltibia 14.1866
lfoot -0.952374 -12.9798
ltoes 11.0742
709
root -13.1675 17.0251 -6.13626 271.584 -86.1138 -274.141
lowerback 2.99168 -1.50172 -6.0315
upperback -2.29766 -2.38609 -1.49297
thorax -3.88184 -1.05779 1.97975
lowerneck -9.11613 2.75828 1.38943
upperneck 5.14885 3.36867 1.85005
head 3.26007 1.77374 0.55082
rclavicle 1.83627e-014 2.98177e-015
rhumerus -45.7119 -31.9074 -55.6883
rradius 7.6627
rwrist 22.4138
rhand -26.1902 0.111837
rfingers 7.12502
rthumb 0.362021 -29.8676
lclavicle 1.83627e-014 2.98177e-015
lhumerus -20.3693 2.88318 86.8869
lradius 44.0357
lwrist 15.9583
lhand -22.2042 17.3567
lfingers 7.12502
lthumb 4.21159 47.2948
rfemur -25.889 -0.591717 14.4144
rtibia 87.6306
rfoot -13.4532 -6.56695
rtoes -0.919968
lfemur 1.13125 16.5963 -27.7032
ltibia 14.3879
lfoot -1.13688 -12.6312
ltoes 10.4846
710
root -13.2897 17.0327 -6.14062 277.975 -86.0901 -280.581
lowerback 3.2733 -1.61781 -6.17252
upperback -2.26357 -2.56071 -1.36851
thorax -3.9814 -1.13496 2.20579
lowerneck -9.22252 2.73802 1.35192
upperneck 4.91041 3.33489 2.00013
head 3.19482 1.75991 0.602858
rclavicle -2.74074e-014 -6.36111e-015
rhumerus -47.0319 -31.7249 -53.9474
rradius 7.60227
rwrist 22.5618
rhand -25.4709 0.0927104
rfingers 7.12502
rthumb 1.05677 -29.8844
lclavicle -2.74074e-014 -6.36111e-015
lhumerus -19.1582 1.08852 87.2341
lradius 45.4744
lwrist 15.9312
lhand -21.8146 17.0348
lfingers 7.12502
lthumb 4.58779 46.9652
rfemur -26.984 -0.206118 14.5828
rtibia 86.9401
rfoot -13.9766 -6.69685
rtoes -0.628151
lfemur 1.5232 16.0878 -27.5983
ltibia 14.6421
lfoot -1.35548 -12.3381
ltoes 9.9236
711
root -13.4111 17.0368 -6.14441 283.608 -85.99 -286.258
lowerback 3.53302 -1.71593 -6.31285
upperback -2.21118 -2.71093 -1.27427
thorax -4.05142 -1.20182 2.39878
lowerneck -9.35312 2.71508 1.28896
upperneck 4.71481 3.2976 2.17912
head 3.14837 1.74528 0.669604
rclavicle 3.35449e-015 1.19271e-014
rhumerus -48.3936 -31.5347 -52.2127
rradius 7.6977
rwrist 22.9802
rhand -24.7121 0.180904
rfingers 7.12502
rthumb 1.78959 -29.7913
lclavicle 3.35449e-015 1.19271e-014
lhumerus -17.9198 -0.701016 87.4461
lradius 46.8653
lwrist 15.8598
lhand -21.5146 16.7499
lfingers 7.12502
lthumb 4.87745 46.6738
rfemur -28.0427 0.215997 14.6879
rtibia 86.0823
rfoot -14.4937 -6.78043
rtoes -0.297437
lfemur 1.89753 15.6128 -27.54
ltibia 14.9103
lfoot -1.62248 -12.0683
ltoes 9.37606
